<?xml version="1.0" encoding="UTF-8" standalone="no"?>
<!-- Created with Inkscape (http://www.inkscape.org/) -->

<svg
  xmlns:dc="http://purl.org/dc/elements/1.1/"
  xmlns:cc="http://creativecommons.org/ns#"
  xmlns:rdf="http://www.w3.org/1999/02/22-rdf-syntax-ns#"
  xmlns="http://www.w3.org/2000/svg"
  version="1.1"
  width="125.91463"
  height="115.3891"
  id="svg2"
  xml:space="preserve"><metadata
     id="metadata8"><rdf:RDF><cc:Work
         rdf:about=""><dc:format>image/svg+xml</dc:format><dc:type
           rdf:resource="http://purl.org/dc/dcmitype/StillImage" /><dc:title></dc:title></cc:Work></rdf:RDF></metadata><defs
     id="defs6"><clipPath
       id="clipPath16"><path
         d="m 0,2204.724 787.402,0 L 787.402,0 0,0 0,2204.724 z"
         id="path18" /></clipPath><clipPath
       id="clipPath24"><path
         d="M 3.05176e-5,2204.72 787.402,2204.72 787.402,0 3.05176e-5,0 l 0,2204.72 z"
         id="path26" /></clipPath><clipPath
       id="clipPath38"><path
         d="m 0,2204.724 787.402,0 L 787.402,0 0,0 0,2204.724 z"
         id="path40" /></clipPath><clipPath
       id="clipPath46"><path
         d="m 366.535,64.5675 55.906,0 0,-17.3229 -55.906,0 0,17.3229 z"
         id="path48" /></clipPath><clipPath
       id="clipPath110"><path
         d="m 0,2204.724 787.402,0 L 787.402,0 0,0 0,2204.724 z"
         id="path112" /></clipPath><clipPath
       id="clipPath118"><path
         d="m 522.047,210.237 55.905,0 0,-17.323 -55.905,0 0,17.323 z"
         id="path120" /></clipPath><clipPath
       id="clipPath178"><path
         d="m 0,2204.724 787.402,0 L 787.402,0 0,0 0,2204.724 z"
         id="path180" /></clipPath><clipPath
       id="clipPath186"><path
         d="m 366.142,210.237 55.905,0 0,-17.323 -55.905,0 0,17.323 z"
         id="path188" /></clipPath><clipPath
       id="clipPath246"><path
         d="m 0,2204.724 787.402,0 L 787.402,0 0,0 0,2204.724 z"
         id="path248" /></clipPath><clipPath
       id="clipPath254"><path
         d="m 208.59,210.359 55.906,0 0,-17.323 -55.906,0 0,17.323 z"
         id="path256" /></clipPath><clipPath
       id="clipPath318"><path
         d="m 0,2204.724 787.402,0 L 787.402,0 0,0 0,2204.724 z"
         id="path320" /></clipPath><clipPath
       id="clipPath326"><path
         d="m 516.535,359.843 67.323,0 0,-20.866 -67.323,0 0,20.866 z"
         id="path328" /></clipPath><clipPath
       id="clipPath386"><path
         d="m 0,2204.724 787.402,0 L 787.402,0 0,0 0,2204.724 z"
         id="path388" /></clipPath><clipPath
       id="clipPath394"><path
         d="m 364.567,367.717 55.905,0 0,-17.323 -55.905,0 0,17.323 z"
         id="path396" /></clipPath><clipPath
       id="clipPath450"><path
         d="m 0,2204.724 787.402,0 L 787.402,0 0,0 0,2204.724 z"
         id="path452" /></clipPath><clipPath
       id="clipPath458"><path
         d="m 208.267,360.63 55.906,0 0,-17.323 -55.906,0 0,17.323 z"
         id="path460" /></clipPath><clipPath
       id="clipPath510"><path
         d="m 0,2204.724 787.402,0 L 787.402,0 0,0 0,2204.724 z"
         id="path512" /></clipPath><clipPath
       id="clipPath518"><path
         d="m 521.26,520.473 55.905,0 0,-17.323 -55.905,0 0,17.323 z"
         id="path520" /></clipPath><clipPath
       id="clipPath574"><path
         d="m 0,2204.724 787.402,0 L 787.402,0 0,0 0,2204.724 z"
         id="path576" /></clipPath><clipPath
       id="clipPath582"><path
         d="m 366.142,510.237 55.905,0 0,-17.323 -55.905,0 0,17.323 z"
         id="path584" /></clipPath><clipPath
       id="clipPath638"><path
         d="m 0,2204.724 787.402,0 L 787.402,0 0,0 0,2204.724 z"
         id="path640" /></clipPath><clipPath
       id="clipPath646"><path
         d="m 207.874,522.048 55.905,0 0,-17.323 -55.905,0 0,17.323 z"
         id="path648" /></clipPath><clipPath
       id="clipPath694"><path
         d="m 0,2204.724 787.402,0 L 787.402,0 0,0 0,2204.724 z"
         id="path696" /></clipPath><clipPath
       id="clipPath702"><path
         d="m 523.622,677.56 55.905,0 0,-17.323 -55.905,0 0,17.323 z"
         id="path704" /></clipPath><clipPath
       id="clipPath754"><path
         d="m 0,2204.724 787.402,0 L 787.402,0 0,0 0,2204.724 z"
         id="path756" /></clipPath><clipPath
       id="clipPath762"><path
         d="m 364.566,682.678 55.906,0 0,-17.323 -55.906,0 0,17.323 z"
         id="path764" /></clipPath><clipPath
       id="clipPath814"><path
         d="m 0,2204.724 787.402,0 L 787.402,0 0,0 0,2204.724 z"
         id="path816" /></clipPath><clipPath
       id="clipPath822"><path
         d="m 181.89,704.725 109.449,0 0,-39.764 -109.449,0 0,39.764 z"
         id="path824" /></clipPath><clipPath
       id="clipPath862"><path
         d="m 0,2204.724 787.402,0 L 787.402,0 0,0 0,2204.724 z"
         id="path864" /></clipPath><clipPath
       id="clipPath870"><path
         d="m 522.047,837.796 55.905,0 0,-17.323 -55.905,0 0,17.323 z"
         id="path872" /></clipPath><clipPath
       id="clipPath930"><path
         d="m 0,2204.724 787.402,0 L 787.402,0 0,0 0,2204.724 z"
         id="path932" /></clipPath><clipPath
       id="clipPath938"><path
         d="m 363.779,833.072 55.906,0 0,-17.323 -55.906,0 0,17.323 z"
         id="path940" /></clipPath><clipPath
       id="clipPath982"><path
         d="m 0,2204.724 787.402,0 L 787.402,0 0,0 0,2204.724 z"
         id="path984" /></clipPath><clipPath
       id="clipPath994"><path
         d="m 221.259,837.796 55.906,0 0,-17.323 -55.906,0 0,17.323 z"
         id="path996" /></clipPath><clipPath
       id="clipPath1038"><path
         d="m 0,2204.724 787.402,0 L 787.402,0 0,0 0,2204.724 z"
         id="path1040" /></clipPath><clipPath
       id="clipPath1046"><path
         d="m 522.047,991.339 55.905,0 0,-17.323 -55.905,0 0,17.323 z"
         id="path1048" /></clipPath><clipPath
       id="clipPath1094"><path
         d="m 0,2204.724 787.402,0 L 787.402,0 0,0 0,2204.724 z"
         id="path1096" /></clipPath><clipPath
       id="clipPath1102"><path
         d="m 365.354,977.166 55.906,0 0,-17.323 -55.906,0 0,17.323 z"
         id="path1104" /></clipPath><clipPath
       id="clipPath1186"><path
         d="m 0,2204.724 787.402,0 L 787.402,0 0,0 0,2204.724 z"
         id="path1188" /></clipPath><clipPath
       id="clipPath1194"><path
         d="m 208.267,984.252 55.906,0 0,-17.322 -55.906,0 0,17.322 z"
         id="path1196" /></clipPath><clipPath
       id="clipPath1254"><path
         d="m 0,2204.724 787.402,0 L 787.402,0 0,0 0,2204.724 z"
         id="path1256" /></clipPath><clipPath
       id="clipPath1262"><path
         d="m 523.622,1150.39 55.905,0 0,-17.32 -55.905,0 0,17.32 z"
         id="path1264" /></clipPath><clipPath
       id="clipPath1322"><path
         d="m 0,2204.724 787.402,0 L 787.402,0 0,0 0,2204.724 z"
         id="path1324" /></clipPath><clipPath
       id="clipPath1330"><path
         d="m 365.748,1145.67 55.905,0 0,-17.32 -55.905,0 0,17.32 z"
         id="path1332" /></clipPath><clipPath
       id="clipPath1374"><path
         d="m 0,2204.724 787.402,0 L 787.402,0 0,0 0,2204.724 z"
         id="path1376" /></clipPath><clipPath
       id="clipPath1382"><path
         d="m 207.874,1149.21 55.905,0 0,-17.32 -55.905,0 0,17.32 z"
         id="path1384" /></clipPath><clipPath
       id="clipPath1430"><path
         d="m 0,2204.724 787.402,0 L 787.402,0 0,0 0,2204.724 z"
         id="path1432" /></clipPath><clipPath
       id="clipPath1438"><path
         d="m 518.504,1309.45 55.905,0 0,-17.32 -55.905,0 0,17.32 z"
         id="path1440" /></clipPath><clipPath
       id="clipPath1502"><path
         d="m 0,2204.724 787.402,0 L 787.402,0 0,0 0,2204.724 z"
         id="path1504" /></clipPath><clipPath
       id="clipPath1510"><path
         d="m 364.567,1295.28 55.905,0 0,-17.33 -55.905,0 0,17.33 z"
         id="path1512" /></clipPath><clipPath
       id="clipPath1578"><path
         d="m 0,2204.724 787.402,0 L 787.402,0 0,0 0,2204.724 z"
         id="path1580" /></clipPath><clipPath
       id="clipPath1586"><path
         d="m 209.448,1307.48 55.906,0 0,-17.32 -55.906,0 0,17.32 z"
         id="path1588" /></clipPath><clipPath
       id="clipPath1642"><path
         d="m 0,2204.724 787.402,0 L 787.402,0 0,0 0,2204.724 z"
         id="path1644" /></clipPath><clipPath
       id="clipPath1650"><path
         d="m 500,1467.32 107.087,0 0,-33.07 -107.087,0 0,33.07 z"
         id="path1652" /></clipPath><clipPath
       id="clipPath1706"><path
         d="m 0,2204.724 787.402,0 L 787.402,0 0,0 0,2204.724 z"
         id="path1708" /></clipPath><clipPath
       id="clipPath1714"><path
         d="m 366.141,1468.5 55.906,0 0,-17.32 -55.906,0 0,17.32 z"
         id="path1716" /></clipPath><clipPath
       id="clipPath1734"><path
         d="m 0,2204.724 787.402,0 L 787.402,0 0,0 0,2204.724 z"
         id="path1736" /></clipPath><clipPath
       id="clipPath1774"><path
         d="m 0,2204.724 787.402,0 L 787.402,0 0,0 0,2204.724 z"
         id="path1776" /></clipPath><clipPath
       id="clipPath1782"><path
         d="m 207.48,1468.5 55.905,0 0,-17.32 -55.905,0 0,17.32 z"
         id="path1784" /></clipPath><clipPath
       id="clipPath1838"><path
         d="m 0,2204.724 787.402,0 L 787.402,0 0,0 0,2204.724 z"
         id="path1840" /></clipPath><clipPath
       id="clipPath1846"><path
         d="m 522.047,1619.69 55.905,0 0,-17.33 -55.905,0 0,17.33 z"
         id="path1848" /></clipPath><clipPath
       id="clipPath1890"><path
         d="m 0,2204.724 787.402,0 L 787.402,0 0,0 0,2204.724 z"
         id="path1892" /></clipPath><clipPath
       id="clipPath1898"><path
         d="m 366.535,1618.9 55.906,0 0,-17.32 -55.906,0 0,17.32 z"
         id="path1900" /></clipPath><clipPath
       id="clipPath1954"><path
         d="m 0,2204.724 787.402,0 L 787.402,0 0,0 0,2204.724 z"
         id="path1956" /></clipPath><clipPath
       id="clipPath1962"><path
         d="m 207.874,1624.41 55.905,0 0,-17.32 -55.905,0 0,17.32 z"
         id="path1964" /></clipPath><clipPath
       id="clipPath2026"><path
         d="m 0,2204.724 787.402,0 L 787.402,0 0,0 0,2204.724 z"
         id="path2028" /></clipPath><clipPath
       id="clipPath2034"><path
         d="m 520.078,1779.92 55.906,0 0,-17.32 -55.906,0 0,17.32 z"
         id="path2036" /></clipPath><clipPath
       id="clipPath2090"><path
         d="m 0,2204.724 787.402,0 L 787.402,0 0,0 0,2204.724 z"
         id="path2092" /></clipPath><clipPath
       id="clipPath2098"><path
         d="m 368.11,1781.89 55.905,0 0,-17.32 -55.905,0 0,17.32 z"
         id="path2100" /></clipPath><clipPath
       id="clipPath2158"><path
         d="m 0,2204.724 787.402,0 L 787.402,0 0,0 0,2204.724 z"
         id="path2160" /></clipPath><clipPath
       id="clipPath2166"><path
         d="m 207.874,1775.59 55.905,0 0,-17.32 -55.905,0 0,17.32 z"
         id="path2168" /></clipPath><clipPath
       id="clipPath2226"><path
         d="m 0,2204.724 787.402,0 L 787.402,0 0,0 0,2204.724 z"
         id="path2228" /></clipPath><clipPath
       id="clipPath2234"><path
         d="m 521.26,1928.35 55.905,0 0,-17.33 -55.905,0 0,17.33 z"
         id="path2236" /></clipPath><clipPath
       id="clipPath2294"><path
         d="m 0,2204.724 787.402,0 L 787.402,0 0,0 0,2204.724 z"
         id="path2296" /></clipPath><clipPath
       id="clipPath2302"><path
         d="m 366.535,1940.16 55.905,0 0,-17.33 -55.905,0 0,17.33 z"
         id="path2304" /></clipPath><clipPath
       id="clipPath2358"><path
         d="m 0,2204.724 787.402,0 L 787.402,0 0,0 0,2204.724 z"
         id="path2360" /></clipPath><clipPath
       id="clipPath2366"><path
         d="m 204.33,1922.84 55.906,0 0,-17.33 -55.906,0 0,17.33 z"
         id="path2368" /></clipPath><clipPath
       id="clipPath2418"><path
         d="m 0,2204.724 787.402,0 L 787.402,0 0,0 0,2204.724 z"
         id="path2420" /></clipPath><clipPath
       id="clipPath2426"><path
         d="m 522.44,2090.16 55.906,0 0,-17.33 -55.906,0 0,17.33 z"
         id="path2428" /></clipPath><clipPath
       id="clipPath2478"><path
         d="m 0,2204.724 787.402,0 L 787.402,0 0,0 0,2204.724 z"
         id="path2480" /></clipPath><clipPath
       id="clipPath2486"><path
         d="m 364.566,2100.79 55.906,0 0,-17.33 -55.906,0 0,17.33 z"
         id="path2488" /></clipPath><clipPath
       id="clipPath2526"><path
         d="m 0,2204.724 787.402,0 L 787.402,0 0,0 0,2204.724 z"
         id="path2528" /></clipPath><clipPath
       id="clipPath2534"><path
         d="m 207.086,2088.98 55.906,0 0,-17.33 -55.906,0 0,17.33 z"
         id="path2536" /></clipPath></defs><g
     transform="matrix(1.25,0,0,-1.25,-231.77072,1140.9804)"
     id="g10"><g
       id="g978"><g
         clip-path="url(#clipPath982)"
         id="g980"><g
           transform="translate(227.6333,865.6308)"
           id="g986"><path
             d="m 0,0 c -0.062,0.02 -0.123,0.04 -0.185,0.059 -6.169,3.663 -31.447,18.317 -33.583,36.673 -3.208,-1.683 -5.659,-7.02 -2.264,-14.709 -2.393,3.684 -2.454,6.098 -3.209,5.402 -3.358,-3.093 -4.034,-11.497 7.169,-20.053 -7.432,4.169 -8.432,8.887 -9.179,7.707 -2.524,-3.988 -0.79,-12.736 13.577,-18.087 -8.518,1.535 -11.03,5.738 -11.354,4.373 -1.479,-6.209 7.269,-18.177 39.355,-10.026 1.885,0.479 3.56,0.937 5.055,1.377 2.291,0.23 3.515,0.68 3.94,1.263 C 24.335,-0.721 9.52,1.239 0,0"
             id="path988"
             style="fill:#d5780a;fill-opacity:1;fill-rule:evenodd;stroke:none" /></g><g
           id="g990"><g
             id="g992" /><g
             id="g998"><g
               clip-path="url(#clipPath994)"
               id="g1000"
               style="opacity:0.19999701"><g
                 transform="translate(249.2122,837.7958)"
                 id="g1002"><path
                   d="m 0,0 c -15.438,0 -27.953,-3.878 -27.953,-8.661 0,-4.784 12.515,-8.662 27.953,-8.662 15.438,0 27.953,3.878 27.953,8.662 C 27.953,-3.878 15.438,0 0,0"
                   id="path1004"
                   style="fill:#000000;fill-opacity:1;fill-rule:evenodd;stroke:none" /></g></g></g></g><g
           transform="translate(266.416,831.7761)"
           id="g1006"><path
             d="m 0,0 c -0.966,2.501 -0.221,0.591 -4.212,-0.279 -1.321,-0.289 -2.482,-0.613 -3.45,-0.918 -2.671,-0.334 -3.805,-0.525 -3.805,-0.525 0,0 0.758,-3.366 4.07,-3.997 0.82,-0.26 1.816,-0.334 3.019,-0.072 C 0.526,-4.721 0.718,-1.859 0,0 m -31.77,-0.279 c -3.991,0.87 -3.246,2.78 -4.212,0.279 -0.718,-1.859 -0.526,-4.721 4.378,-5.791 1.203,-0.262 2.199,-0.188 3.019,0.072 3.312,0.631 4.07,3.997 4.07,3.997 0,0 -1.134,0.191 -3.805,0.525 -0.968,0.305 -2.129,0.629 -3.45,0.918"
             id="path1008"
             style="fill:#1d2e2f;fill-opacity:1;fill-rule:evenodd;stroke:none" /></g><g
           transform="translate(284.1109,886.8836)"
           id="g1010"><path
             d="m 0,0 c -0.033,0.026 -0.067,0.05 -0.1,0.076 -0.255,0.382 -0.507,0.732 -0.693,0.996 -1.391,1.977 -3.514,3.641 -5.523,3.849 -1.117,0.116 -2.199,0.084 -3.225,-0.086 0.994,2.554 1.896,4.193 3.896,5.172 0.84,0.112 1.286,0.322 1.456,0.59 2.58,1.135 -0.576,2.011 -1.75,2.373 -0.037,0.012 -0.076,0.02 -0.114,0.031 -0.379,0.266 -0.742,0.502 -1.013,0.682 -2.012,1.34 -4.593,2.122 -6.542,1.589 -1.897,-0.519 -3.529,-1.417 -4.808,-2.627 -0.418,2.712 -0.456,4.583 0.788,6.432 0.671,0.517 0.952,0.922 0.965,1.24 1.667,2.272 -1.504,1.453 -2.702,1.18 -0.038,-0.009 -0.076,-0.022 -0.114,-0.031 -0.461,0.04 -0.894,0.063 -1.219,0.084 -2.412,0.154 -5.038,-0.459 -6.459,-1.894 -0.919,-0.929 -1.65,-1.944 -2.187,-3.015 -1.367,2.407 -2.083,4.156 -1.574,6.337 0.444,0.722 0.563,1.2 0.463,1.502 0.752,2.716 -1.922,0.825 -2.945,0.145 -0.033,-0.022 -0.063,-0.048 -0.096,-0.07 -0.445,-0.125 -0.858,-0.258 -1.169,-0.354 -2.31,-0.711 -4.548,-2.216 -5.367,-4.063 -0.767,-1.729 -1.082,-3.486 -0.992,-5.18 2.096,0.653 4.272,1.013 6.519,1.013 11.96,0 22.052,-9.987 27.926,-22.559 1.986,2.204 3.454,3.521 5.78,3.719 0.824,-0.2 1.316,-0.165 1.572,0.024 C 3.587,-2.721 0.963,-0.763 0,0 m -43.977,20.799 c 0.323,0.787 0.364,1.28 0.217,1.563 0.307,2.815 -2.029,0.509 -2.929,-0.33 -0.029,-0.027 -0.055,-0.057 -0.083,-0.084 -0.42,-0.197 -0.806,-0.394 -1.098,-0.539 -2.165,-1.078 -4.132,-2.93 -4.644,-4.893 -0.537,-2.056 -0.54,-4.064 -0.028,-5.889 -2.647,1.023 -4.332,1.925 -5.33,3.977 -0.112,0.844 -0.322,1.291 -0.591,1.463 -1.134,2.591 -2.009,-0.579 -2.372,-1.759 -0.011,-0.037 -0.019,-0.076 -0.03,-0.114 -0.266,-0.381 -0.502,-0.746 -0.682,-1.018 -1.339,-2.021 -2.121,-4.615 -1.588,-6.572 0.519,-1.906 1.416,-3.545 2.626,-4.83 -2.711,-0.42 -4.582,-0.459 -6.429,0.791 -0.517,0.674 -0.922,0.956 -1.24,0.97 -2.271,1.674 -1.452,-1.512 -1.179,-2.715 0.009,-0.041 0.02,-0.081 0.03,-0.122 -0.04,-0.461 -0.063,-0.893 -0.083,-1.217 -0.155,-2.423 0.458,-5.062 1.893,-6.489 1.175,-1.169 2.487,-2.041 3.877,-2.59 4.548,11.432 12.462,21.173 22.196,24.41 -1.712,2.144 -2.685,3.758 -2.533,5.987"
             id="path1012"
             style="fill:#febc1e;fill-opacity:1;fill-rule:evenodd;stroke:none" /></g><g
           transform="translate(249.6058,903.2485)"
           id="g1014"><path
             d="m 0,0 c -23.031,0 -38.976,-36.811 -31.496,-59.055 7.48,-22.244 55.315,-20.472 62.992,0.787 C 39.173,-37.008 23.031,0 0,0"
             id="path1016"
             style="fill:#febc1e;fill-opacity:1;fill-rule:evenodd;stroke:none" /></g><g
           transform="translate(279.9,875.1969)"
           id="g1018"><path
             d="m 0,0 c 0,0 -2.236,-8.211 -10.32,-15.537 -8.083,-7.327 -19.65,-12.392 -25.322,-15.286 -8.825,-4.503 6.972,-6.225 14.46,-2.25 -2.453,-2.522 -4.071,-4.208 -4.071,-4.208 0,0 1.122,-2.876 11.687,0.861 1.075,0.38 2.254,1.267 3.421,2.387 l -2.122,-3.248 c 0,0 3.409,-1.431 7.791,0 3.822,1.248 7.651,6.526 8.408,15.748 C 4.69,-12.312 0,0 0,0"
             id="path1020"
             style="fill:#d5780a;fill-opacity:1;fill-rule:evenodd;stroke:none" /></g><g
           transform="translate(228.0685,877.4683)"
           id="g1022"><path
             d="M 0,0 C 0,0 7.133,-9.59 13.756,-7.571 20.38,-5.552 19.87,4.543 19.87,4.543 L 0,0 z m 22.927,3.029 c 0,0 -1.783,-12.367 6.114,-15.143 7.897,-2.776 13.757,10.6 13.757,10.6 L 22.927,3.029 z"
             id="path1024"
             style="fill:#fcfcfc;fill-opacity:1;fill-rule:evenodd;stroke:none" /></g><g
           transform="translate(236.4751,875.9541)"
           id="g1026"><path
             d="M 0,0 C 2.044,0 3.708,1.909 3.811,4.307 L -3.468,2.643 C -2.862,1.084 -1.539,0 0,0 M 17.581,3.843 C 17.58,3.824 17.578,3.805 17.578,3.786 c 0,-2.927 2.395,-5.3 5.349,-5.3 2.134,0 3.971,1.241 4.829,3.031 L 17.581,3.843 z"
             id="path1028"
             style="fill:#001e20;fill-opacity:1;fill-rule:evenodd;stroke:none" /></g><g
           transform="translate(248.2862,871.0178)"
           id="g1030"><path
             d="m 0,0 c -1.181,-0.63 -8.661,-3.281 -15.285,-7.571 -6.623,-4.291 -1.528,-18.171 -1.528,-18.171 L 0,-7.571 c 0,0 2.205,1.829 2.362,4.034 C 2.52,-1.333 1.181,0.63 0,0"
             id="path1032"
             style="fill:#d5780a;fill-opacity:1;fill-rule:evenodd;stroke:none" /></g></g></g></g></svg>
